#!OML:ASF F:\VICON\USERDATA\INSTALL\rory3\rory3.ASF
:FULLY-SPECIFIED
:DEGREES
47
root -0.42902561505864273 18.248550360311647 36.211921817719826 1.5480967909108978 7.627216613938814 -3.2856903635521526
lfemur -25.417892990377318 -3.0359265066239125 -22.13465460442941
ltibia 31.348370207058505
lfoot 3.010362472860275 -16.198131957871794
ltoes -8.306644129154131
rfemur -3.573637936702241 0.8394691750003138 30.128520545171046
rtibia 64.49131872239114
rfoot 22.53267133326838 -11.7829387986089
rtoes 18.14744521408965
lowerback 12.744097161331412 1.2685741650400546 3.8281974738781184
upperback -1.2286649479125777 2.331043263606871 0.9924035608828381
thorax -8.209367139392809 1.05184953264795 -1.4311796169018383
lowerneck -18.270966760139697 -5.863462376253349 -2.1030112915449353
upperneck 12.761405370865994 -7.952556642442479 3.676043178024388
head 7.325989552638433 -3.547007826575298 0.6223735086874108
lclavicle -8.891786372602196e-16 1.269937789687676e-15
lhumerus -60.8756655025043 -10.704562485332634 98.58958418366568
lradius 114.485179045538
lwrist 38.08744360011624
lhand -31.756043635945183 0.238921206259732
lfingers nan
lthumb -5.161480561309911 29.965708239266515
rclavicle -8.638060443878324e-16 1.2659747833529074e-15
rhumerus -44.98548176934535 14.751693727942632 -98.33997747493585
rradius 125.6010226768187
rwrist -16.33475485704337
rhand -18.193490709186133 35.56784282180578
rfingers nan
rthumb 8.25567163824942 6.100066287016061
48
root -0.501145004635178 17.9289251579665 37.469955050886774 0.5754549440757954 8.264429186375102 -1.9360534620198702
lfemur -22.5181639456955 -3.0632820851805542 -24.013659245025703
ltibia 35.87473290706119
lfoot -0.7350632303171927 -13.642647997416425
ltoes -6.30168770690209
rfemur -7.373039135107289 -1.9489358324555424 26.995138460395264
rtibia 76.26185116394211
rfoot 21.107085830524888 -14.03298810306114
rtoes 21.85789085353448
lowerback 13.700931140616005 0.9108023745995331 1.8866141075533933
upperback -0.6985582726637206 1.523887976837257 0.39718500504654597
thorax -8.391630929031683 0.7631502592343331 -0.5511996689869703
lowerneck -18.621355024298058 -5.715549239061716 -2.043073563639783
upperneck 12.507666493795103 -7.812778686698897 3.9479008047153963
head 7.325860897270029 -3.458651036787768 0.7213707518782431
lclavicle -8.99059239024186e-16 1.265969009128111e-15
lhumerus -58.325001285348236 -11.642414632242286 98.7223646776653
lradius 115.58801475182486
lwrist 37.11580356477515
lhand -31.59831650142182 0.34464612375638315
lfingers nan
lthumb -5.024635288451061 30.03224774842278
rclavicle -8.743606709980532e-16 1.264834501609776e-15
rhumerus -45.58183534226479 14.566061151494067 -99.12987781655697
rradius 124.4496327250538
rwrist -15.64904079087869
rhand -18.06349204242414 36.18247793923461
rfingers nan
rthumb 8.337111452517659 6.772655510195389
49
root -0.553138251696215 17.56059959328684 38.70319548932876 -0.19894895904142995 9.094120418208178 0.04851080826703047
lfemur -18.959196978491697 -3.333889317928662 -26.5914161765831
ltibia 40.340951698949105
lfoot -4.819389765620633 -11.201926111597594
ltoes -6.021369091301551
rfemur -13.000580311222652 -5.151072170295888 22.293681439815263
rtibia 87.73013859248604
rfoot 18.47269622467999 -14.39327983603878
rtoes 24.498975021588084
lowerback 14.789784794748753 0.6324735763744381 -0.4820444313917249
upperback -0.1353067690152382 0.7788402903875247 -0.40407098639903194
thorax -8.513199521310167 0.45567360313461563 0.2549088691555166
lowerneck -19.2322037444116 -5.458073894521525 -1.9866785618459764
upperneck 12.118757641742725 -7.521787103618895 4.192143668126423
head 7.264766312948156 -3.3144063868576783 0.8309392831362068
lclavicle -9.06984151251139e-16 1.2655619693004362e-15
lhumerus -55.197246284212504 -12.788099182331147 98.75362070413637
lradius 116.3892163773451
lwrist 36.29518787690245
lhand -31.44395813140442 0.31812962959187224
lfingers nan
lthumb -4.783387989542866 30.087888389222346
rclavicle -9.077651595319815e-16 1.2539616504426654e-15
rhumerus -46.38033682956398 14.121700285721564 -99.90518480576641
rradius 123.17645226330461
rwrist -14.123048531322226
rhand -18.071039595619723 36.548891915376785
rfingers nan
rthumb 8.307176662307386 7.226199245550633
50
root -0.574685240082687 17.246275802898975 39.99221108183851 -0.25204817128811285 9.997527763237025 1.3716155183590732
lfemur -15.524241363985961 -3.9032678863578796 -28.356615911188918
ltibia 43.722103662056334
lfoot -5.6951458521189 -8.02035594052192
ltoes -8.323045312408693
rfemur -20.659782669220924 -7.461038724866945 18.853952282969527
rtibia 98.08436246711474
rfoot 15.447239304071175 -12.520702585705806
rtoes 24.585201480627035
lowerback 15.606630726754805 0.38348558659052573 -1.9961905177873152
upperback 0.14997755581616878 0.26436038638254766 -0.9040100183869089
thorax -8.753202793221826 0.2124825192978724 0.6867288285610095
lowerneck -19.974409723837212 -5.122658059849339 -1.9594394579892938
upperneck 11.748459729784866 -7.089688955549985 4.350983007937302
head 7.1635504974593305 -3.1211370401873104 0.930312326857953
lclavicle -9.13093077591561e-16 1.266173643935689e-15
lhumerus -51.542531559800274 -14.034686870586416 98.60991307905906
lradius 116.89916331487085
lwrist 35.36565067967608
lhand -31.383359265245147 0.1754492575778563
lfingers nan
lthumb -4.677634240447704 29.95202703108055
rclavicle -9.4372306244723e-16 1.2410673001530384e-15
rhumerus -47.33209963520094 13.55321723352686 -100.62121732536154
rradius 121.99574484496291
rwrist -13.697982402061283
rhand -18.08406401848317 36.7609693446354
rfingers nan
rthumb 8.25861440733107 7.404091377887486
51
root -0.5578549890150464 17.090742007947306 42.99184881219271 0.46952170848252717 10.249596059646423 2.1565361135202448
lfemur -12.144528690561298 -4.5297496605378 -29.442791919817655
ltibia 45.298665665014354
lfoot -3.9406556471226053 -7.163430079280129
ltoes -12.096920038379498
rfemur -26.655968630642718 -8.24780825436206 17.568630435091052
rtibia 104.29455877281077
rfoot 13.610181098998101 -8.72533267178994
rtoes 21.842023905753052
lowerback 16.049061005181635 0.13124101946505906 -2.8128619110003563
upperback 0.17833998199441348 -0.095965924701931 -1.0699095455388061
thorax -9.076542372994085 0.0463709888514543 1.004972455260729
lowerneck -20.651479199294883 -4.757783281566228 -1.9346668851409925
upperneck 11.532099212631858 -6.590816418503134 4.3601960600999945
head 7.10337720158516 -2.896325875790762 0.9880833346576873
lclavicle -9.170302989293708e-16 1.2665240621393353e-15
lhumerus -47.4416185579982 -15.220079646022903 98.27589566923453
lradius 117.24704162501358
lwrist 33.23360504711942
lhand -31.280540501197418 0.13374941563991277
lfingers nan
lthumb -4.447155414069012 30.06143622966216
rclavicle -9.674003604499103e-16 1.2316678242276742e-15
rhumerus -48.420597882715676 12.965859805395205 -101.22835417713712
rradius 121.08484769342202
rwrist -14.177627326721447
rhand -18.128481351438964 36.51821179792218
rfingers nan
rthumb 8.21149046333716 7.1235366042909
52
root -0.5205726432918476 17.039431061414163 44.249871733653876 1.0251251537709778 8.618690085367502 3.2049712446691028
lfemur -7.851155339148056 -4.8364660673846345 -30.82778737871942
ltibia 44.420477480026534
lfoot -2.208893598612305 -7.922615337058509
ltoes -14.894112497918101
rfemur -29.60037392263613 -7.715086769760781 16.947641284247283
rtibia 105.35869579405707
rfoot 11.503297520147962 -4.965485253282354
rtoes 17.85227050894265
lowerback 16.28192918008377 -0.08577492740748632 -3.8454148626032976
upperback 0.1624443675587951 -0.4794359563066971 -1.192895869520079
thorax -9.195481801992413 -0.11016812557555872 1.438982836052471
lowerneck -21.22291847857848 -4.340404085767779 -1.9489397447998398
upperneck 11.542562256758496 -5.995227777852334 4.270791112550187
head 7.124744947123475 -2.626190216582133 1.0280496274509785
lclavicle -9.190122352891588e-16 1.26770128763974e-15
lhumerus -43.27438027935487 -16.213425994619765 97.80489269790662
lradius 117.65972206813883
lwrist 30.24883973266264
lhand -31.24441483060811 0.12820691996602468
lfingers nan
lthumb -4.3260860045659735 30.172483181391158
rclavicle -9.840593460867569e-16 1.2256098660912213e-15
rhumerus -49.621541410407076 12.407340537870237 -101.6850754021313
rradius 120.54590105499372
rwrist -15.75146916522271
rhand -18.075702119673156 36.08523209998777
rfingers nan
rthumb 8.21981087250809 6.5030292588044105
